Genre:Horror
Language:English
IMDb:http://www.imdb.com/title/tt1421049/
Source:DVD


Format : AVI
Format/Info : Audio Video Interleave
File size : 830 MiB
Duration : 1h 24mn
Overall bit rate : 1 380 Kbps


Video
Codec ID/Hint : XviD
Duration : 1h 24mn
Bit rate : 1 243 Kbps
Width : 720 pixels
Height : 304 pixels
Display aspect ratio : 2.35:1
Frame rate : 25.000 fps
Color space : YUV
Chroma subsampling : 4:2:0
Bit depth : 8 bits
Scan type : Progressive
Bits/(Pixel*Frame) : 0.227
Stream size : 748 MiB (90%)
Writing library : XviD 1.2.1

Audio
ID : 1
Format : MPEG Audio
Format version : Version 1
Format profile : Layer 3
Mode : Joint stereo
Codec ID : 55
Codec ID/Hint : MP3
Duration : 1h 24mn
Bit rate mode : Constant
Bit rate : 128 Kbps
Channel(s) : 2 channels
Sampling rate : 48.0 KHz
Video delay : 816ms
Stream size : 77.0 MiB (9%)
Alignment : Split accross interleaves
Interleave, duration : 40 ms (1.00 video frame)
Interleave, preload duration : 504 ms


Plot:
When brutal murdering starts in a small riverside town, the sheriff must investigate and face the horrific past







================================== 
http://thepiratebay.org/user/hiest
==================================